<svg width="34" height="34" viewBox="0 0 34 34" fill="none" xmlns="http://www.w3.org/2000/svg">
<path d="M28.3333 25.4998H25.5V13.104L17 18.4165L8.49998 13.104V25.4998H5.66665V8.49984H7.36665L17 14.5207L26.6333 8.49984H28.3333M28.3333 5.6665H5.66665C4.09415 5.6665 2.83331 6.92734 2.83331 8.49984V25.4998C2.83331 26.2513 3.13182 26.972 3.66318 27.5033C4.19453 28.0347 4.9152 28.3332 5.66665 28.3332H28.3333C29.0848 28.3332 29.8054 28.0347 30.3368 27.5033C30.8681 26.972 31.1666 26.2513 31.1666 25.4998V8.49984C31.1666 7.74839 30.8681 7.02772 30.3368 6.49637C29.8054 5.96501 29.0848 5.6665 28.3333 5.6665Z" fill="#121212"/>
</svg>
