<svg width="34" height="34" viewBox="0 0 34 34" fill="none" xmlns="http://www.w3.org/2000/svg">
<path d="M11.05 2.8335H22.95C27.4833 2.8335 31.1666 6.51683 31.1666 11.0502V22.9502C31.1666 25.1294 30.301 27.2193 28.76 28.7602C27.2191 30.3011 25.1292 31.1668 22.95 31.1668H11.05C6.51665 31.1668 2.83331 27.4835 2.83331 22.9502V11.0502C2.83331 8.87097 3.699 6.78103 5.23992 5.2401C6.78084 3.69918 8.87078 2.8335 11.05 2.8335ZM10.7666 5.66683C9.41404 5.66683 8.11684 6.20415 7.1604 7.16059C6.20397 8.11702 5.66665 9.41423 5.66665 10.7668V23.2335C5.66665 26.0527 7.94748 28.3335 10.7666 28.3335H23.2333C24.5859 28.3335 25.8831 27.7962 26.8396 26.8397C27.796 25.8833 28.3333 24.5861 28.3333 23.2335V10.7668C28.3333 7.94766 26.0525 5.66683 23.2333 5.66683H10.7666ZM24.4375 7.79183C24.9071 7.79183 25.3576 7.9784 25.6897 8.31049C26.0217 8.64259 26.2083 9.09301 26.2083 9.56266C26.2083 10.0323 26.0217 10.4827 25.6897 10.8148C25.3576 11.1469 24.9071 11.3335 24.4375 11.3335C23.9678 11.3335 23.5174 11.1469 23.1853 10.8148C22.8532 10.4827 22.6666 10.0323 22.6666 9.56266C22.6666 9.09301 22.8532 8.64259 23.1853 8.31049C23.5174 7.9784 23.9678 7.79183 24.4375 7.79183ZM17 9.91683C18.8786 9.91683 20.6803 10.6631 22.0087 11.9915C23.337 13.3199 24.0833 15.1215 24.0833 17.0002C24.0833 18.8788 23.337 20.6805 22.0087 22.0088C20.6803 23.3372 18.8786 24.0835 17 24.0835C15.1214 24.0835 13.3197 23.3372 11.9913 22.0088C10.6629 20.6805 9.91665 18.8788 9.91665 17.0002C9.91665 15.1215 10.6629 13.3199 11.9913 11.9915C13.3197 10.6631 15.1214 9.91683 17 9.91683ZM17 12.7502C15.8728 12.7502 14.7918 13.1979 13.9948 13.995C13.1977 14.792 12.75 15.873 12.75 17.0002C12.75 18.1273 13.1977 19.2083 13.9948 20.0054C14.7918 20.8024 15.8728 21.2502 17 21.2502C18.1272 21.2502 19.2082 20.8024 20.0052 20.0054C20.8022 19.2083 21.25 18.1273 21.25 17.0002C21.25 15.873 20.8022 14.792 20.0052 13.995C19.2082 13.1979 18.1272 12.7502 17 12.7502Z" fill="#121212"/>
</svg>
