<svg width="29" height="29" viewBox="0 0 29 29" fill="none" xmlns="http://www.w3.org/2000/svg">
<path d="M19.2621 21.7053C19.54 19.4348 18.0779 17.9873 14.2173 16.7548C12.3468 16.1168 11.4659 15.2806 11.4864 14.1315C11.565 12.8555 12.7528 11.9263 14.3284 11.896C15.5693 11.9094 16.7796 12.283 17.8121 12.9715C17.9522 13.0585 18.0501 13.044 18.1299 12.9231C18.2386 12.7491 18.5105 12.3274 18.6011 12.174C18.6627 12.0773 18.6748 11.9492 18.5189 11.8356C18.2954 11.6701 17.6683 11.3342 17.3311 11.1928C16.371 10.7864 15.3396 10.5753 14.297 10.5717C11.9891 10.5814 10.173 12.0398 10.0195 13.9865C9.92124 15.393 10.618 16.5316 12.1099 17.4024C12.4277 17.5861 14.1399 18.2676 14.8214 18.4802C16.965 19.1473 18.0779 20.3435 17.8157 21.7391C17.5776 23.0042 16.2461 23.8223 14.4106 23.8465C12.957 23.7909 11.6471 23.1976 10.6321 22.4085L10.4618 22.2756C10.3361 22.179 10.1984 22.185 10.115 22.3119C10.0546 22.4049 9.66064 22.9728 9.56156 23.1215C9.46852 23.252 9.51927 23.3245 9.61594 23.4042C10.0389 23.7582 10.6031 24.1449 10.9862 24.3407C12.0472 24.8813 13.2144 25.1813 14.4046 25.2191C15.2614 25.2599 16.1169 25.1139 16.9119 24.7914C18.235 24.2295 19.0905 23.107 19.2621 21.7053ZM14.5 1.69288C12.0012 1.69288 9.96393 4.04912 9.86848 6.99746H19.1304C19.0325 4.04792 16.9964 1.69167 14.5 1.69167M23.9866 28.9976L23.89 28.9988L4.81764 28.9964C3.51989 28.948 2.56652 27.8968 2.43602 26.5906L2.42393 26.355L1.56964 7.59438C1.56404 7.51901 1.57387 7.44329 1.59853 7.37185C1.62318 7.30041 1.66215 7.23475 1.71304 7.17888C1.76393 7.12301 1.82569 7.07811 1.89452 7.04692C1.96336 7.01572 2.03783 6.99889 2.11339 6.99746H8.12485C8.27106 3.103 11.0684 0 14.5 0C17.9317 0 20.7266 3.10421 20.874 6.99625H26.877C26.9522 6.99648 27.0265 7.01197 27.0956 7.04177C27.1646 7.07157 27.2269 7.11507 27.2786 7.16962C27.3303 7.22418 27.3705 7.28867 27.3965 7.35919C27.4226 7.4297 27.4342 7.50478 27.4304 7.57987L26.4964 26.4154L26.4879 26.5737C26.3743 27.8956 25.3049 28.9625 23.9866 28.9976Z" fill="#121212"/>
</svg>
