<svg width="34" height="34" viewBox="0 0 34 34" fill="none" xmlns="http://www.w3.org/2000/svg">
<path d="M16.5013 3.5835C23.6352 3.5835 29.4179 9.36629 29.4179 16.5002C29.4179 23.634 23.6352 29.4168 16.5013 29.4168C14.2186 29.4208 11.976 28.8167 10.0042 27.6666L3.58978 29.4168L5.33611 22.9998C4.18519 21.0274 3.58061 18.7839 3.58461 16.5002C3.58461 9.36629 9.36741 3.5835 16.5013 3.5835ZM12.0993 10.4293L11.8409 10.4397C11.6739 10.4512 11.5107 10.495 11.3604 10.5688C11.2204 10.6483 11.0925 10.7475 10.9807 10.8633C10.8257 11.0093 10.7379 11.1359 10.6436 11.2586C10.1658 11.8797 9.90858 12.6424 9.91249 13.426C9.91507 14.0589 10.0804 14.675 10.3387 15.2511C10.867 16.4162 11.7363 17.6497 12.8833 18.7929C13.1597 19.068 13.431 19.3444 13.7229 19.6015C15.1482 20.8562 16.8465 21.7611 18.6829 22.2442L19.4166 22.3566C19.6555 22.3695 19.8945 22.3514 20.1347 22.3398C20.5109 22.32 20.8781 22.2181 21.2107 22.0414C21.3797 21.954 21.5448 21.8592 21.7054 21.7572C21.7054 21.7572 21.7601 21.7202 21.8669 21.641C22.0412 21.5118 22.1484 21.4201 22.2931 21.269C22.4016 21.1571 22.492 21.027 22.5644 20.8789C22.6651 20.6684 22.7659 20.2667 22.8072 19.9321C22.8382 19.6764 22.8292 19.5369 22.8253 19.4503C22.8201 19.3121 22.7052 19.1687 22.5799 19.108L21.8281 18.7709C21.8281 18.7709 20.7044 18.2814 20.0172 17.9688C19.9453 17.9375 19.8682 17.9195 19.7899 17.9158C19.7015 17.9066 19.6121 17.9164 19.5279 17.9447C19.4437 17.9731 19.3665 18.0191 19.3016 18.0799C19.2952 18.0773 19.2086 18.1509 18.2747 19.2824C18.2211 19.3544 18.1473 19.4089 18.0627 19.4388C17.978 19.4687 17.8864 19.4727 17.7994 19.4503C17.7152 19.4279 17.6328 19.3994 17.5527 19.3651C17.3925 19.2979 17.337 19.2721 17.2272 19.2256C16.4856 18.9025 15.7992 18.4654 15.1928 17.93C15.0301 17.788 14.8789 17.633 14.7239 17.4831C14.2158 16.9964 13.773 16.4459 13.4064 15.8453L13.3302 15.7226C13.2763 15.6397 13.2321 15.5508 13.1985 15.4578C13.1494 15.2679 13.2773 15.1155 13.2773 15.1155C13.2773 15.1155 13.5912 14.7719 13.7371 14.5859C13.8792 14.4051 13.9993 14.2294 14.0768 14.1041C14.2292 13.8587 14.277 13.6068 14.1969 13.4118C13.8353 12.5283 13.4616 11.6495 13.0758 10.7755C12.9996 10.6024 12.7735 10.4784 12.5682 10.4539C12.4984 10.4453 12.4287 10.4384 12.3589 10.4332C12.1855 10.4233 12.0116 10.425 11.8384 10.4384L12.0993 10.4293Z" fill="black"/>
</svg>
