<svg width="34" height="34" viewBox="0 0 34 34" fill="none" xmlns="http://www.w3.org/2000/svg">
<path d="M14.1666 21.2502L21.5191 17.0002L14.1666 12.7502V21.2502ZM30.5433 10.1577C30.7275 10.8235 30.855 11.716 30.94 12.8493C31.0391 13.9827 31.0816 14.9602 31.0816 15.8102L31.1666 17.0002C31.1666 20.1027 30.94 22.3835 30.5433 23.8427C30.1891 25.1177 29.3675 25.9393 28.0925 26.2935C27.4266 26.4777 26.2083 26.6052 24.3383 26.6902C22.4966 26.7893 20.8108 26.8318 19.2525 26.8318L17 26.9168C11.0641 26.9168 7.36665 26.6902 5.90748 26.2935C4.63248 25.9393 3.81081 25.1177 3.45665 23.8427C3.27248 23.1768 3.14498 22.2843 3.05998 21.151C2.96081 20.0177 2.91831 19.0402 2.91831 18.1902L2.83331 17.0002C2.83331 13.8977 3.05998 11.6168 3.45665 10.1577C3.81081 8.88266 4.63248 8.061 5.90748 7.70683C6.57331 7.52266 7.79165 7.39516 9.66165 7.31016C11.5033 7.211 13.1891 7.1685 14.7475 7.1685L17 7.0835C22.9358 7.0835 26.6333 7.31016 28.0925 7.70683C29.3675 8.061 30.1891 8.88266 30.5433 10.1577Z" fill="#121212"/>
</svg>
